<?xml version="1.0" encoding="UTF-8" standalone="no"?>
<svg
   xmlns:dc="http://purl.org/dc/elements/1.1/"
   xmlns:cc="http://creativecommons.org/ns#"
   xmlns:rdf="http://www.w3.org/1999/02/22-rdf-syntax-ns#"
   xmlns:svg="http://www.w3.org/2000/svg"
   xmlns="http://www.w3.org/2000/svg"
   xmlns:xlink="http://www.w3.org/1999/xlink"
   xmlns:sodipodi="http://sodipodi.sourceforge.net/DTD/sodipodi-0.dtd"
   xmlns:inkscape="http://www.inkscape.org/namespaces/inkscape"
   viewBox="0 0 765 990"
   height="990"
   width="765"
   xml:space="preserve"
   version="1.1"
   id="svg2"
   inkscape:version="0.48.5 r10040"
   sodipodi:docname="hub_cutout_cleaned.svg"><sodipodi:namedview
     pagecolor="#ffffff"
     bordercolor="#666666"
     borderopacity="1"
     objecttolerance="10"
     gridtolerance="10"
     guidetolerance="10"
     inkscape:pageopacity="0"
     inkscape:pageshadow="2"
     inkscape:window-width="1081"
     inkscape:window-height="805"
     id="namedview3829"
     showgrid="false"
     inkscape:zoom="0.95353535"
     inkscape:cx="363.91206"
     inkscape:cy="452.17109"
     inkscape:window-x="0"
     inkscape:window-y="0"
     inkscape:window-maximized="0"
     inkscape:current-layer="g12" /><metadata
     id="metadata8"><rdf:RDF><cc:Work
         rdf:about=""><dc:format>image/svg+xml</dc:format><dc:type
           rdf:resource="http://purl.org/dc/dcmitype/StillImage" /><dc:title></dc:title></cc:Work></rdf:RDF></metadata><defs
     id="defs6"><linearGradient
       inkscape:collect="always"
       id="linearGradient3852"><stop
         style="stop-color:#000000;stop-opacity:1;"
         offset="0"
         id="stop3854" /><stop
         style="stop-color:#000000;stop-opacity:0;"
         offset="1"
         id="stop3856" /></linearGradient><radialGradient
       inkscape:collect="always"
       xlink:href="#linearGradient3852"
       id="radialGradient3858"
       cx="178.25255"
       cy="657.39581"
       fx="178.25255"
       fy="657.39581"
       r="334.29233"
       gradientTransform="matrix(-1.3269051,0.01766853,-0.01441793,-1.0827854,608.86266,1330.5653)"
       gradientUnits="userSpaceOnUse" /></defs><g
     transform="matrix(1.25,0,0,-1.25,0,990)"
     id="g10"><g
       transform="scale(0.1,0.1)"
       id="g12"><path
         id="path18"
         style="fill:none;stroke:#0000ff;stroke-width:8;stroke-linecap:butt;stroke-linejoin:miter;stroke-miterlimit:10;stroke-opacity:1;stroke-dasharray:none"
         d="m 398.598,1542.36 16.125,-28.94 7.547,-13.42 8.453,-14.78 26.457,17.78 42.148,26.96 42.969,25.62 43.754,24.26 44.5,22.88 45.191,21.47 45.844,20.04 46.453,18.59 47.012,17.12 47.523,15.64 47.992,14.13 48.418,12.63 48.786,11.1 49.11,9.56 49.39,8.02 49.61,6.46 49.79,4.9 49.92,3.33 50.01,1.76 50.03,0.2 50.01,-1.38 49.95,-2.94 49.82,-4.51 49.67,-6.08 49.44,-7.63 49.19,-9.18 48.87,-10.72 48.51,-12.24 48.1,-13.77 47.64,-15.26 47.15,-16.76 46.59,-18.23 46,-19.68 45.36,-21.11 44.68,-22.54 43.94,-23.91 43.16,-25.29 42.36,-26.63 41.5,-27.95 40.61,-29.24 39.66,-30.5 38.68,-31.72 37.67,-32.93 36.62,-34.09 35.53,-35.22 34.41,-36.33 33.25,-37.38 32.06,-38.41 30.83,-39.4 29.59,-40.35 28.31,-41.25 26.99,-42.13 25.66,-42.949 24.3,-43.734 22.91,-44.477 21.51,-45.172 20.08,-45.828 18.63,-46.434 17.16,-46.996 15.68,-47.511 14.18,-47.981 12.66,-48.402 11.14,-48.778 9.61,-49.101 8.05,-49.375 6.5,-49.61 4.95,-49.785 3.39,-50.265 1.05,-23.762 1.08,-38.039 -0.14,-49.949 -1.71,-49.9182 L 2925.2,45 l 51.11,0.5977 15.7,0.1835 15.69,0.5469 52.01,1.8242 15.67,0.9102 51.57,3.0273 15.64,1.2735 51.48,4.2344 15.62,1.6367 51.37,5.4414 15.56,1.9961 51.23,6.6445 15.52,2.3594 51.06,7.8398 15.46,2.7188 50.86,9.0351 15.39,3.0782 50.64,10.2263 15.31,3.434 50.38,11.41 15.24,3.785 50.09,12.59 15.15,4.137 49.79,13.761 15.04,4.489 49.45,14.922 14.94,4.839 49.09,16.079 14.81,5.179 48.7,17.227 14.7,5.523 48.28,18.363 14.56,5.864 47.84,19.488 14.42,6.199 47.37,20.606 14.27,6.531 46.88,21.711 14.11,6.863 46.35,22.801 13.96,7.187 45.8,23.883 13.79,7.508 45.23,24.949 13.61,7.828 44.63,26.004 13.42,8.141 44.01,27.043 13.23,8.449 43.37,28.067 13.03,8.757 42.69,29.075 12.83,9.054 42,30.067 12.61,9.351 41.29,31.043 12.38,9.641 40.55,32.004 12.16,9.926 39.79,32.945 11.93,10.203 26.57,22.902 12.43,10.969 11.69,10.477 25.63,23.156 12.57,11.617 11.44,10.746 24.7,23.379 12.67,12.281 11.19,11.012 23.76,23.563 12.77,12.96 10.93,11.266 22.83,23.727 12.83,13.648 10.67,11.516 21.9,23.851 12.87,14.35 10.4,11.76 20.99,23.95 12.88,15.05 10.12,12 20.08,24.02 12.86,15.76 9.84,12.24 19.18,24.06 12.83,16.48 9.55,12.46 18.28,24.07 12.77,17.21 9.26,12.68 17.4,24.05 12.67,17.95 8.96,12.89 16.53,24 12.55,18.69 8.66,13.09 15.67,23.94 12.4,19.43 8.36,13.29 14.82,23.83 12.22,20.18 8.05,13.48 13.98,23.71 -32.17,19.86 -43.13,28.01 -42.24,29.32 -41.48,30.72 -19.23,14.92 -30.4,24.34 -39.23,33.42 -38.1,34.53 -37.03,35.68 -35.92,36.8 -34.78,37.88 -33.61,38.92 -32.39,39.94 -31.16,40.91 -29.9,41.84 -28.6,42.74 -27.28,43.59 -25.93,44.4 -24.57,45.18 -23.17,45.91 -21.75,46.59 -20.32,47.24 -18.87,47.84 -17.4,48.39 -15.9,48.9 -14.4,49.37 -12.89,49.78 -11.35,50.15 -9.82,50.48 -8.27,50.76 -6.71,50.98 -5.15,51.17 -3.58,51.29 -2.01,51.39 -0.44,51.42 1.13,51.41 2.71,51.35 4.27,51.25 5.84,51.09 7.41,50.89 8.95,50.63 10.5,50.34 12.04,50 13.55,49.6 15.07,49.17 16.56,48.69 18.05,48.14 19.51,47.58 20.96,46.96 22.39,46.3 23.78,45.59 25.18,44.84 26.53,44.05 27.86,43.22 29.18,42.34 30.46,41.43 31.71,40.48 32.94,39.5 34.12,38.46 35.29,37.41 36.41,36.31 37.51,35.17 38.57,34.02 39.59,32.82 40.57,31.59 41.53,30.33 42.43,29.05 43.29,27.74 27.17,16.52 -16.95,28.83 -8.04,13.54 -9.22,15.27 -17.82,28.75 -8.35,13.35 -9.37,14.72 -18.7,28.64 -8.66,13.16 -9.5,14.19 -19.57,28.5 -8.97,12.95 -9.62,13.66 -20.44,28.34 -9.27,12.74 -31.04,41.28 -9.56,12.52 -32,40.55 -9.85,12.29 -32.94,39.79 -10.13,12.06 -33.87,39 -10.41,11.82 -34.77,38.2 -10.68,11.57 -35.66,37.37 -10.94,11.33 -36.53,36.52 -11.21,11.07 -37.37,35.66 -11.46,10.8 -38.2,34.77 -11.7,10.53 -39.01,33.88 -11.95,10.25 -39.78,32.95 -12.19,9.98 -40.55,32 -12.41,9.68 -41.29,31.05 -12.64,9.4 -42,30.06 -12.85,9.11 -42.7,29.07 -13.06,8.8 -43.36,28.07 -13.27,8.49 -44.01,27.04 -13.45,8.18 -44.64,26.01 -13.64,7.86 -45.23,24.96 -13.82,7.54 -45.81,23.88 -13.99,7.23 -46.35,22.8 -14.16,6.89 -46.87,21.72 -14.32,6.56 -47.37,20.6 -14.46,6.23 -47.84,19.49 -14.61,5.89 -48.28,18.36 -14.74,5.55 -48.69,17.23 -14.87,5.2 -49.09,16.08 -14.98,4.86 -49.45,14.92 -15.09,4.51 -49.79,13.75 -15.19,4.16 -50.1,12.59 -15.28,3.8 -50.38,11.41 -15.37,3.45 -50.63,10.22 -15.44,3.09 -50.86,9.03 -15.52,2.73 -51.05,7.84 -15.57,2.36 -51.23,6.65 -15.62,2 -51.37,5.44 -15.66,1.63 -51.48,4.24 -15.7,1.27 -51.57,3.03 -15.72,0.9 -51.62,1.82 -15.75,0.54 -51.64,0.6 -15.75,0.18 -0.38,-24.11 0.97,-50.48 -0.6,-50.49 -2.17,-50.44 -3.74,-50.35 -5.31,-50.21 -6.88,-50.02 -8.43,-49.78 -9.97,-49.5 -11.51,-49.15 -13.04,-48.78 -14.56,-48.35 -16.04,-47.86 -17.55,-47.35 -19,-46.78 -20.45,-46.15 -21.88,-45.51 -23.29,-44.8 -24.67,-44.05 -26.04,-43.26 -27.36,-42.42 -28.68,-41.55 -29.96,-40.65 -31.21,-39.68 -32.43,-38.69 -33.63,-37.67 -34.78,-36.6 -35.9,-35.49 -36.99,-34.36 -38.2,-33.32 -18.3,-15.24 -29.65,-23.93 -40.49,-30.64 -41.19,-29.2 -42.08,-27.89 -42.93,-26.58 -43.75,-25.22 -44.5,-23.84 -45.23,-22.46 -45.91,-21.03 -46.54,-19.58 -47.12,-18.13 -47.67,-16.65 -48.16,-15.16 -48.61,-13.65 -49.02,-12.13 -49.37,-10.59 -49.67,-9.05 -49.93,-7.5 -50.15,-5.93 -50.29,-4.37 -50.42,-2.81 -50.47,-1.23 -50.49,0.34 -50.46,1.92 -50.37,3.49 -50.24,5.06 -50.05,6.61 -49.83,8.18 -49.543,9.72 -49.219,11.27 -48.848,12.79 -48.418,14.31 -47.953,15.81 -47.437,17.3 -46.868,18.76 -46.269,20.22 -45.613,21.65 -44.918,23.07 -44.176,24.45 -43.391,25.81 -26.422,16.59 -14.605,-25.81 -24.949,-45.23 -7.207,-13.57 -15.883,-30.17 -8,-15.64 -6.895,-13.72 -14.457,-29.07 -8.344,-17.29 -6.585,-13.88 -13.09,-27.91 -8.618,-18.96 -6.265,-14.03 -11.781,-26.71 -8.825,-20.65 -5.945,-14.17 -10.539,-25.47 -8.945,-22.37 -5.621,-14.29 -9.36,-24.18 -9.004,-24.11 -5.3,-14.41 -8.243,-22.86 -8.98,-25.85 -4.965,-14.54 -7.199,-21.48 -8.879,-27.61 -4.633,-14.64 -6.219,-20.09 -8.707,-29.36 -4.3,-14.75 -5.309,-18.66 -8.453,-31.13 -3.965,-14.84 -4.465,-17.2 -8.129,-32.9 -3.625,-14.93 -11.41,-50.37 -3.289,-15.01 -10.2265,-50.63 -2.9453,-15.08 -9.0391,-50.86 -2.6055,-15.14 -7.8398,-51.06 -2.2617,-15.2 -6.6407,-51.22 -1.914,-15.25 -5.4414,-51.36 -1.5664,-15.28 -4.2305,-51.48 -1.2227,-15.32 -3.0273,-51.56 -0.875,-15.34 -1.8164,-51.62 -0.5235,-15.36 -0.496,-41.92 L 45,2925.24 c 2.722012,-81.8556 1.3086,-82.69 1.3086,-82.69 l 1.8164,-51.62 0.875,-15.38 3.0273,-51.56 1.2266,-15.35 4.2305,-51.49 1.5742,-15.32 5.4414,-51.37 1.9219,-15.28 6.6406,-51.22 2.2734,-15.24 7.8399,-51.05 2.6172,-15.18 9.0351,-50.86 2.9649,-15.11 10.227,-50.64 3.3,-15.04 11.41,-50.38 3.645,-14.96 8.426,-34.07 4.164,-16.03 3.988,-14.88 8.813,-32.41 4.945,-17.38 4.324,-14.78 9.129,-30.75 5.793,-18.7 4.656,-14.68 9.375,-29.1 6.703,-19.99 4.993,-14.57 9.55,-27.46 7.672,-21.24 5.321,-14.45 9.66,-25.82 8.703,-22.47 5.648,-14.32 9.688,-24.19 9.797,-23.65 5.972,-14.2 9.657,-22.57 10.949,-24.8 6.297,-14.05 9.554,-20.98 12.157,-25.89 6.609,-13.91 9.375,-19.39 13.43,-26.97 6.929,-13.75 9.133,-17.83 14.746,-27.97 7.239,-13.6 8.828,-16.29 m 1638.7695,1317.6888 c -4.238,77.7824 -0.6615,111.44 0.7325,134.6312 l 3.72,37.32 5.3,37.14 6.86,36.88 8.4,36.55 9.94,36.17 11.46,35.72 12.95,35.21 14.42,34.63 15.87,33.99 17.29,33.29 18.67,32.53 20.03,31.71 21.36,30.85 22.63,29.92 23.87,28.93 25.07,27.9 26.23,26.82 27.33,25.69 28.39,24.52 29.4,23.29 30.36,22.05 31.26,20.73 32.1,19.41 32.9,18.02 33.62,16.63 34.29,15.2 34.91,13.74 35.46,12.25 35.93,10.75 36.37,9.22 36.71,7.69 37.01,6.12 37.24,4.57 37.39,2.98 37.48,1.41 37.52,-0.17 37.46,-1.75 37.36,-3.34 37.2,-4.89 36.94,-6.47 36.65,-8.02 36.27,-9.56 35.85,-11.08 35.33,-12.57 34.78,-14.06 34.16,-15.51 33.47,-16.94 32.73,-18.33 31.92,-19.7 31.07,-21.01 30.15,-22.32 29.18,-23.57 28.17,-24.77 27.1,-25.94 25.98,-27.06 24.81,-28.14 23.61,-29.15 22.36,-30.12 21.06,-31.03 19.74,-31.9 18.38,-32.7 16.98,-33.45 15.56,-34.13 14.1,-34.76 12.63,-35.33 11.13,-35.82 9.61,-36.26 8.07,-36.64 6.51,-36.93 4.96,-37.19 3.38,-37.36 1.81,-37.47 0.23,-37.51 -1.36,-37.49 -2.94,-37.39 -4.51,-37.24 -6.07,-37.02 -7.64,-36.72 -9.17,-36.38 -10.7,-35.95 -12.2,-35.47 -13.69,-34.93 -15.15,-34.31 -16.58,-33.65 -17.99,-32.92 -19.35,-32.13 -20.7,-31.29 -21.99,-30.38 -23.26,-29.44 -24.47,-28.42 -25.66,-27.37 -26.78,-26.27 -27.87,-25.11 -28.9,-23.91 -29.88,-22.68 -30.82,-21.39 -31.68,-20.08 -32.51,-18.72 -33.27,-17.33 -33.96,-15.92 -34.61,-14.47 -35.19,-13 -35.7,-11.5 -36.16,-10 -36.54,-8.45 -36.87,-6.91 -37.14,-5.35 -37.32,-3.77 -37.44,-2.21 -37.51,-0.61 -37.5,0.96 -37.42,2.54 -37.29,4.11 -37.08,5.69 -36.8,7.24 -36.48,8.79 -36.06,10.31 -35.6,11.83 -35.06,13.32 -34.48,14.79 -33.82,16.22 -33.1,17.64 -32.34,19.02 -31.5,20.36 -30.62,21.67 -29.68,22.95 -28.68,24.17 -27.64,25.36 -26.54,26.51 -25.41,27.6 -24.22,28.65 -22.98,29.64 -21.72,30.58 -20.41,31.48 -19.07,32.3 -17.68,33.09 -16.27,33.79 -14.84,34.46 -13.37,35.04 -11.88,35.58 -10.38,36.05 -8.84,36.46 -7.29,36.79 z"
         inkscape:connector-curvature="0"
         sodipodi:nodetypes="ccccccccccccccccccccccccccccccccccccccccccccccccccccccccccccccccccccccccccccccccccccccccccccccccccccccccccccccccccccccccccccccccccccccccccccccccccccccccccccccccccccccccccccccccccccccccccccccccccccccccccccccccccccccccccccccccccccccccccccccccccccccccccccccccccccccccccccccccccccccccccccccccccccccccccccccccccccccccccccccccccccccccccccccccccccccccccccccccccccccccccccccccccccccccccccccccccccccccccccccccccccccccccccccccccccccccccccccccccccccccccccccccccccccccccccccccccccccccccccccccccccccccccccccccccccccccccccccccccccccccccccccccccccccccccccccccccccccccccccccccccccccccccccccccccccccccccccccccccccccccccccccccccccccccccccccccccccccccccccccccccccccccccccccccccccccccccccccc" /><path
         style="fill:url(#radialGradient3858);fill-opacity:1"
         d="m 367.31214,970.43683 c 0,-68.4491 -32.57117,-130.59157 -88.0029,-167.90051 C 211.87879,757.15149 124.42589,756.67276 56.199133,801.315 53.999979,802.75396 53.715307,802.35812 46.011937,787.14968 26.087152,747.81303 14.761242,710.65716 9.0287744,665.82244 c -2.6091186,-20.40641 -2.6091186,-62.44316 0,-82.84957 C 14.576615,539.58214 24.875709,505.06672 43.84168,466.3041 l 9.87657,-20.18571 5.047745,3.10591 c 16.82826,10.35454 42.056535,20.06169 64.192335,24.69947 16.22861,3.40014 47.12818,4.69458 63.60542,2.66456 46.56585,-5.737 87.92682,-25.74503 120.44708,-58.26529 37.37573,-37.37573 59.15713,-88.76252 59.23337,-139.74371 l 0.0192,-12.84693 9.99274,0 c 12.95904,0 36.92575,2.53974 54.33974,5.75836 61.63753,11.39243 117.72807,37.9495 166.91222,79.02758 26.85925,22.43257 59.01922,60.14403 75.35424,88.36198 l 2.79425,4.82694 -6.03929,3.99443 c -48.31111,31.95336 -79.93791,78.70817 -92.2122,136.31991 -2.74964,12.90598 -2.90463,15.08847 -2.90463,40.90042 0,25.80014 0.15606,28.00036 2.90115,40.90042 11.95952,56.20167 43.17088,103.35643 88.50352,133.71293 4.7375,3.1724 8.62957,6.18882 8.64907,6.70315 0.0687,1.81164 -12.10117,20.20157 -22.63066,34.19727 -60.97373,81.0458 -153.41008,132.29908 -255.24702,141.5271 -6.63321,0.60107 -15.95379,1.09446 -20.71239,1.09643 l -8.65202,0.004 0,-12.62608 z M 388.9087,734.12655 c 44.32521,-9.60397 78.49129,-44.50894 86.88666,-88.76573 2.09339,-11.03544 2.09339,-30.89089 0,-41.92633 -6.62069,-34.90144 -31.10316,-66.44439 -62.67866,-80.75451 -36.77204,-16.66521 -78.72181,-13.05815 -111.4768,9.58534 -64.44484,44.55068 -63.76658,141.71942 1.29167,185.04714 13.6947,9.12045 28.20577,14.95755 44.2393,17.79532 9.98779,1.76775 31.37057,1.26505 41.73783,-0.98123 l 0,0 z"
         id="path3850"
         inkscape:connector-curvature="0"
         transform="matrix(8,0,0,-8,0,7920)" /></g></g></svg>